<svg width="20" height="17" viewBox="0 0 20 17" fill="none" xmlns="http://www.w3.org/2000/svg">
<path d="M18 0.43457H2C0.9 0.43457 0.00999999 1.33457 0.00999999 2.43457L0 14.4346C0 15.5346 0.9 16.4346 2 16.4346H18C19.1 16.4346 20 15.5346 20 14.4346V2.43457C20 1.33457 19.1 0.43457 18 0.43457ZM17.6 4.68457L10.53 9.10457C10.21 9.30457 9.79 9.30457 9.47 9.10457L2.4 4.68457C2.29973 4.62828 2.21192 4.55223 2.14189 4.46102C2.07186 4.36982 2.02106 4.26535 1.99258 4.15394C1.96409 4.04253 1.9585 3.92651 1.97616 3.81288C1.99381 3.69925 2.03434 3.59038 2.09528 3.49287C2.15623 3.39536 2.23632 3.31123 2.33073 3.24557C2.42513 3.1799 2.53187 3.13408 2.6445 3.11087C2.75712 3.08766 2.87328 3.08754 2.98595 3.11052C3.09863 3.1335 3.20546 3.1791 3.3 3.24457L10 7.43457L16.7 3.24457C16.7945 3.1791 16.9014 3.1335 17.014 3.11052C17.1267 3.08754 17.2429 3.08766 17.3555 3.11087C17.4681 3.13408 17.5749 3.1799 17.6693 3.24557C17.7637 3.31123 17.8438 3.39536 17.9047 3.49287C17.9657 3.59038 18.0062 3.69925 18.0238 3.81288C18.0415 3.92651 18.0359 4.04253 18.0074 4.15394C17.9789 4.26535 17.9281 4.36982 17.8581 4.46102C17.7881 4.55223 17.7003 4.62828 17.6 4.68457Z" fill="black"/>
</svg>
