<svg width="14" height="21" viewBox="0 0 14 21" fill="none" xmlns="http://www.w3.org/2000/svg">
<path d="M7 9.93457C6.33696 9.93457 5.70107 9.67118 5.23223 9.20234C4.76339 8.7335 4.5 8.09761 4.5 7.43457C4.5 6.77153 4.76339 6.13564 5.23223 5.6668C5.70107 5.19796 6.33696 4.93457 7 4.93457C7.66304 4.93457 8.29893 5.19796 8.76777 5.6668C9.23661 6.13564 9.5 6.77153 9.5 7.43457C9.5 7.76288 9.43534 8.08797 9.3097 8.39128C9.18406 8.69459 8.99991 8.97019 8.76777 9.20234C8.53562 9.43448 8.26002 9.61863 7.95671 9.74427C7.65339 9.86991 7.3283 9.93457 7 9.93457ZM7 0.43457C5.14348 0.43457 3.36301 1.17207 2.05025 2.48482C0.737498 3.79758 0 5.57805 0 7.43457C0 12.6846 7 20.4346 7 20.4346C7 20.4346 14 12.6846 14 7.43457C14 5.57805 13.2625 3.79758 11.9497 2.48482C10.637 1.17207 8.85652 0.43457 7 0.43457Z" fill="black"/>
</svg>
