<svg
width="18"
height="19"
viewBox="0 0 18 19"
fill="none"
xmlns="http://www.w3.org/2000/svg"
>
<path
d="M3.62 8.22457C5.06 11.0546 7.38 13.3646 10.21 14.8146L12.41 12.6146C12.68 12.3446 13.08 12.2546 13.43 12.3746C14.55 12.7446 15.76 12.9446 17 12.9446C17.55 12.9446 18 13.3946 18 13.9446V17.4346C18 17.9846 17.55 18.4346 17 18.4346C7.61 18.4346 0 10.8246 0 1.43457C0 0.88457 0.45 0.43457 1 0.43457H4.5C5.05 0.43457 5.5 0.88457 5.5 1.43457C5.5 2.68457 5.7 3.88457 6.07 5.00457C6.18 5.35457 6.1 5.74457 5.82 6.02457L3.62 8.22457Z"
fill="black"
/>
</svg>