<svg width="42" height="42" viewBox="0 0 42 42" fill="none" xmlns="http://www.w3.org/2000/svg">
<rect x="1.17161" y="0.986065" width="40.2652" height="40.2652" rx="20.1326" stroke="#F5F5F5" stroke-width="0.821739"/>
<path d="M17.8529 12.9014H24.7555C27.3851 12.9014 29.5216 15.0379 29.5216 17.6675V24.5701C29.5216 25.8341 29.0194 27.0464 28.1256 27.9402C27.2318 28.834 26.0195 29.3361 24.7555 29.3361H17.8529C15.2233 29.3361 13.0868 27.1996 13.0868 24.5701V17.6675C13.0868 16.4034 13.5889 15.1911 14.4827 14.2973C15.3766 13.4035 16.5888 12.9014 17.8529 12.9014ZM17.6885 14.5448C16.904 14.5448 16.1515 14.8565 15.5967 15.4113C15.0419 15.9661 14.7303 16.7185 14.7303 17.5031V24.7344C14.7303 26.3697 16.0533 27.6927 17.6885 27.6927H24.9198C25.7044 27.6927 26.4569 27.381 27.0116 26.8262C27.5664 26.2714 27.8781 25.519 27.8781 24.7344V17.5031C27.8781 15.8678 26.5551 14.5448 24.9198 14.5448H17.6885ZM25.6183 15.7775C25.8907 15.7775 26.152 15.8857 26.3446 16.0783C26.5373 16.2709 26.6455 16.5322 26.6455 16.8046C26.6455 17.0771 26.5373 17.3383 26.3446 17.5309C26.152 17.7236 25.8907 17.8318 25.6183 17.8318C25.3459 17.8318 25.0846 17.7236 24.892 17.5309C24.6994 17.3383 24.5911 17.0771 24.5911 16.8046C24.5911 16.5322 24.6994 16.2709 24.892 16.0783C25.0846 15.8857 25.3459 15.7775 25.6183 15.7775ZM21.3042 17.0101C22.3939 17.0101 23.4389 17.4429 24.2095 18.2135C24.98 18.984 25.4129 20.0291 25.4129 21.1188C25.4129 22.2085 24.98 23.2535 24.2095 24.024C23.4389 24.7946 22.3939 25.2275 21.3042 25.2275C20.2145 25.2275 19.1694 24.7946 18.3989 24.024C17.6284 23.2535 17.1955 22.2085 17.1955 21.1188C17.1955 20.0291 17.6284 18.984 18.3989 18.2135C19.1694 17.4429 20.2145 17.0101 21.3042 17.0101ZM21.3042 18.6535C20.6504 18.6535 20.0233 18.9133 19.561 19.3756C19.0987 19.8379 18.839 20.4649 18.839 21.1188C18.839 21.7726 19.0987 22.3996 19.561 22.8619C20.0233 23.3242 20.6504 23.584 21.3042 23.584C21.958 23.584 22.585 23.3242 23.0474 22.8619C23.5097 22.3996 23.7694 21.7726 23.7694 21.1188C23.7694 20.4649 23.5097 19.8379 23.0474 19.3756C22.585 18.9133 21.958 18.6535 21.3042 18.6535Z" fill="#F5F5F5"/>
</svg>
