<svg width="43" height="42" viewBox="0 0 43 42" fill="none" xmlns="http://www.w3.org/2000/svg">
<rect x="1.38902" y="0.986065" width="40.2652" height="40.2652" rx="20.1326" stroke="#F5F5F5" stroke-width="0.821739"/>
<path d="M15.9916 14.1192C15.9913 14.6496 15.7803 15.1582 15.4051 15.5331C15.0298 15.908 14.521 16.1184 13.9906 16.1182C13.4601 16.1179 12.9515 15.9069 12.5767 15.5317C12.2018 15.1564 11.9913 14.6476 11.9916 14.1172C11.9918 13.5867 12.2028 13.0781 12.5781 12.7032C12.9533 12.3284 13.4621 12.1179 13.9926 12.1182C14.523 12.1184 15.0316 12.3294 15.4065 12.7047C15.7814 13.0799 15.9918 13.5887 15.9916 14.1192ZM16.0516 17.5992H12.0516V30.1192H16.0516V17.5992ZM22.3716 17.5992H18.3916V30.1192H22.3316V23.5492C22.3316 19.8892 27.1016 19.5492 27.1016 23.5492V30.1192H31.0516V22.1892C31.0516 16.0192 23.9916 16.2492 22.3316 19.2792L22.3716 17.5992Z" fill="#F5F5F5"/>
</svg>
