<svg width="42" height="42" viewBox="0 0 42 42" fill="none" xmlns="http://www.w3.org/2000/svg">
<rect x="1.0847" y="0.986065" width="40.2652" height="40.2652" rx="20.1326" stroke="#F5F5F5" stroke-width="0.821739"/>
<path d="M28.2673 14.0292C27.3504 13.1033 26.2584 12.3692 25.0548 11.8696C23.8513 11.37 22.5604 11.1149 21.2573 11.1192C15.7973 11.1192 11.3473 15.5692 11.3473 21.0292C11.3473 22.7792 11.8073 24.4792 12.6673 25.9792L11.2673 31.1192L16.5173 29.7392C17.9673 30.5292 19.5973 30.9492 21.2573 30.9492C26.7173 30.9492 31.1673 26.4992 31.1673 21.0392C31.1673 18.3892 30.1373 15.8992 28.2673 14.0292ZM21.2573 29.2692C19.7773 29.2692 18.3273 28.8692 17.0573 28.1192L16.7573 27.9392L13.6373 28.7592L14.4673 25.7192L14.2673 25.4092C13.4449 24.0963 13.0083 22.5785 13.0073 21.0292C13.0073 16.4892 16.7073 12.7892 21.2473 12.7892C23.4473 12.7892 25.5173 13.6492 27.0673 15.2092C27.835 15.9731 28.4433 16.8817 28.857 17.8825C29.2707 18.8833 29.4815 19.9563 29.4773 21.0392C29.4973 25.5792 25.7973 29.2692 21.2573 29.2692ZM25.7773 23.1092C25.5273 22.9892 24.3073 22.3892 24.0873 22.2992C23.8573 22.2192 23.6973 22.1792 23.5273 22.4192C23.3573 22.6692 22.8873 23.2292 22.7473 23.3892C22.6073 23.5592 22.4573 23.5792 22.2073 23.4492C21.9573 23.3292 21.1573 23.0592 20.2173 22.2192C19.4773 21.5592 18.9873 20.7492 18.8373 20.4992C18.6973 20.2492 18.8173 20.1192 18.9473 19.9892C19.0573 19.8792 19.1973 19.6992 19.3173 19.5592C19.4373 19.4192 19.4873 19.3092 19.5673 19.1492C19.6473 18.9792 19.6073 18.8392 19.5473 18.7192C19.4873 18.5992 18.9873 17.3792 18.7873 16.8792C18.5873 16.3992 18.3773 16.4592 18.2273 16.4492H17.7473C17.5773 16.4492 17.3173 16.5092 17.0873 16.7592C16.8673 17.0092 16.2273 17.6092 16.2273 18.8292C16.2273 20.0492 17.1173 21.2292 17.2373 21.3892C17.3573 21.5592 18.9873 24.0592 21.4673 25.1292C22.0573 25.3892 22.5173 25.5392 22.8773 25.6492C23.4673 25.8392 24.0073 25.8092 24.4373 25.7492C24.9173 25.6792 25.9073 25.1492 26.1073 24.5692C26.3173 23.9892 26.3173 23.4992 26.2473 23.3892C26.1773 23.2792 26.0273 23.2292 25.7773 23.1092Z" fill="#F5F5F5"/>
</svg>
