<svg width="42" height="42" viewBox="0 0 42 42" fill="none" xmlns="http://www.w3.org/2000/svg">
<rect x="0.780254" y="0.986065" width="40.2652" height="40.2652" rx="20.1326" stroke="#F5F5F5" stroke-width="0.821739"/>
<path d="M18.9128 24.1191L24.1028 21.1191L18.9128 18.1191V24.1191ZM30.4728 16.2891C30.6028 16.7591 30.6928 17.3891 30.7528 18.1891C30.8228 18.9891 30.8528 19.6791 30.8528 20.2791L30.9128 21.1191C30.9128 23.3091 30.7528 24.9191 30.4728 25.9491C30.2228 26.8491 29.6428 27.4291 28.7428 27.6791C28.2728 27.8091 27.4128 27.8991 26.0928 27.9591C24.7928 28.0291 23.6028 28.0591 22.5028 28.0591L20.9128 28.1191C16.7228 28.1191 14.1128 27.9591 13.0828 27.6791C12.1828 27.4291 11.6028 26.8491 11.3528 25.9491C11.2228 25.4791 11.1328 24.8491 11.0728 24.0491C11.0028 23.2491 10.9728 22.5591 10.9728 21.9591L10.9128 21.1191C10.9128 18.9291 11.0728 17.3191 11.3528 16.2891C11.6028 15.3891 12.1828 14.8091 13.0828 14.5591C13.5528 14.4291 14.4128 14.3391 15.7328 14.2791C17.0328 14.2091 18.2228 14.1791 19.3228 14.1791L20.9128 14.1191C25.1028 14.1191 27.7128 14.2791 28.7428 14.5591C29.6428 14.8091 30.2228 15.3891 30.4728 16.2891Z" fill="#F5F5F5"/>
</svg>
